<svg xmlns="http://www.w3.org/2000/svg" viewBox="0 0 640 390" role="img" aria-labelledby="title desc">
 <title id="title">ห้องเรียนดิจิทัล KruPo</title><desc id="desc">แท็บเล็ต หนังสือ ดินสอ เกม และสัญลักษณ์การศึกษา</desc>
 <defs><linearGradient id="bg" x1="0" y1="0" x2="1" y2="1"><stop stop-color="#EEF4FF"/><stop offset="1" stop-color="#E9F9F5"/></linearGradient><linearGradient id="blue" x1="0" y1="0" x2="1" y2="1"><stop stop-color="#0F5BD8"/><stop offset="1" stop-color="#6554E8"/></linearGradient></defs>
 <rect width="640" height="390" rx="40" fill="url(#bg)"/>
 <path d="M48 116c102-80 162 73 262-6s178-63 278 4" fill="none" stroke="#A9CCFF" stroke-width="4" stroke-dasharray="9 11"/>
 <g transform="translate(152 83) rotate(-5)"><rect width="340" height="224" rx="25" fill="#174789"/><rect x="14" y="14" width="312" height="188" rx="15" fill="#fff"/><rect x="32" y="35" width="276" height="34" rx="10" fill="#EEF4FF"/><rect x="32" y="87" width="80" height="85" rx="12" fill="#DDEBFF"/><rect x="130" y="87" width="80" height="85" rx="12" fill="#E9E5FF"/><rect x="228" y="87" width="80" height="85" rx="12" fill="#DDF7EC"/><circle cx="170" cy="213" r="5" fill="#C8D5E5"/></g>
 <g transform="translate(74 255)"><rect y="58" width="230" height="45" rx="15" fill="#F6B73C"/><rect x="8" y="26" width="230" height="45" rx="15" fill="#2FC58D"/><rect x="20" width="230" height="45" rx="15" fill="#3D8EF7"/><path d="M46 13h150" stroke="#fff" stroke-opacity=".7" stroke-width="4"/></g>
 <g transform="translate(505 230)"><path d="m31 0 31 28-19 70H8L0 28Z" fill="#fff"/><path d="M17 20 21 90M37 16l-4 74M51 28 42 90" stroke-width="11" stroke-linecap="round"/><path d="M17 20 21 90" stroke="#0F5BD8"/><path d="M37 16l-4 74" stroke="#F6B73C"/><path d="M51 28 42 90" stroke="#2FC58D"/><path d="M7 91h42" stroke="#CAD6E6" stroke-width="18" stroke-linecap="round"/></g>
 <g transform="translate(66 72)"><rect width="70" height="70" rx="22" fill="url(#blue)"/><path d="m15 30 20-11 20 11-20 11-20-11Z" fill="#fff"/><path d="M23 37v11c8 5 16 5 24 0V37" fill="#DDF7EC"/></g>
 <g transform="translate(500 62)"><circle cx="35" cy="35" r="35" fill="#2FC58D"/><path d="m19 35 10 10 22-25" fill="none" stroke="#fff" stroke-width="7" stroke-linecap="round" stroke-linejoin="round"/></g>
 <g transform="translate(518 144)"><path d="M6 28c0-19 14-28 29-28s29 9 29 28c0 12-9 15-12 27H18C15 43 6 40 6 28Z" fill="#F6B73C"/><rect x="20" y="54" width="30" height="11" rx="5" fill="#0B2F6B"/></g>
</svg>
